<svg width="18" height="19" viewBox="0 0 18 19" fill="none" xmlns="http://www.w3.org/2000/svg">
    <path d="M11.3027 1.00757H6.80273V2.50757H11.3027V1.00757ZM8.30273 10.7576H9.80273V6.25757H8.30273V10.7576ZM14.3252 5.79257L15.3902 4.72757C15.0677 4.34507 14.7152 3.98507 14.3327 3.67007L13.2677 4.73507C12.1052 3.80507 10.6427 3.25007 9.05273 3.25007C5.32523 3.25007 2.30273 6.27257 2.30273 10.0001C2.30273 13.7276 5.31773 16.7501 9.05273 16.7501C12.7877 16.7501 15.8027 13.7276 15.8027 10.0001C15.8027 8.41757 15.2477 6.95507 14.3252 5.79257ZM9.05273 15.2576C6.15023 15.2576 3.80273 12.9101 3.80273 10.0076C3.80273 7.10507 6.15023 4.75757 9.05273 4.75757C11.9552 4.75757 14.3027 7.10507 14.3027 10.0076C14.3027 12.9101 11.9552 15.2576 9.05273 15.2576Z" fill="white" fill-opacity="0.5"/>
</svg>
